<svg width="500" height="350" viewBox="0 0 500 350" fill="none" xmlns="http://www.w3.org/2000/svg">
<rect x="1.5" y="1.5" width="497" height="347" rx="1.5" stroke="#F0DDBC" stroke-width="3"/>
<path fill-rule="evenodd" clip-rule="evenodd" d="M211.74 107.261C204.05 105.123 195.857 105.717 188.556 108.943C181.255 112.169 175.299 117.827 171.702 124.952L169.916 124.051C173.722 116.512 180.024 110.527 187.748 107.114C195.472 103.701 204.14 103.072 212.276 105.334C220.412 107.596 227.512 112.608 232.366 119.518C237.221 126.428 239.529 134.807 238.898 143.228C238.266 151.649 234.735 159.59 228.905 165.699C223.075 171.808 215.307 175.707 206.925 176.731C198.543 177.755 190.065 175.84 182.936 171.314C175.807 166.788 168 159.5 165 140.5L169.728 151.283C172.223 158.865 177.27 165.348 184.008 169.626C190.746 173.904 198.76 175.713 206.682 174.746C214.605 173.778 221.948 170.093 227.458 164.319C232.969 158.544 236.307 151.038 236.903 143.079C237.5 135.119 235.318 127.199 230.73 120.668C226.141 114.137 219.431 109.399 211.74 107.261Z" fill="#F0DDBC"/>
<path d="M232.549 76.5735H176.149V114.624C176.149 114.624 181 110 188.5 106.5C193.3 104.2 198.4 104 204 104C212.2 104 217.3 107.1 222.5 110.5C227.7 113.9 231.5 118.5 233.5 122.5C236.162 127.824 237.516 132.143 238 138.224C238.5 144.5 237 150.5 234 156.5C231.051 161.726 227.5 166.7 222 170C216.6 173.3 210.6 176 202.5 176C192.2 176 184.4 172.3 178 167C174.828 164.323 171.5 160 168.5 153.5C166.535 146.763 165.206 143.213 164.5 138.624L175.5 149C171 153.5 180 157.5 184.5 161.5C189.2 165.1 193.5 167.5 202.5 168C213.5 167 217.5 164.5 222.5 160C227.5 155 231 146.724 231 138.224C231 129.924 226.262 122.829 221.5 118.5C216 113.5 212.5 112 203.5 111.124C197.7 111.124 191.9 112.8 187.5 115.5C185.874 116.498 182.417 118.853 180.5 121.5C177.42 125.752 175.5 131 175.5 131L165.799 119.624V67.4235H232.549V76.5735Z" fill="#F0DDBC"/>
<path d="M257.327 120.25C257.327 103.05 259.977 89.7 265.277 80.2C270.577 70.7 280.077 65.95 293.777 65.95C307.477 65.95 316.977 70.7 322.277 80.2C327.577 89.7 330.227 103.05 330.227 120.25C330.227 137.75 327.577 151.3 322.277 160.9C316.977 170.5 307.477 175.3 293.777 175.3C279.977 175.3 270.427 170.5 265.127 160.9C259.927 151.3 257.327 137.75 257.327 120.25ZM319.877 120.25C319.877 110.95 319.227 103.1 317.927 96.7C316.627 90.3 314.077 85.15 310.277 81.25C306.477 77.35 300.977 75.4 293.777 75.4C286.577 75.4 281.077 77.35 277.277 81.25C273.477 85.15 270.927 90.3 269.627 96.7C268.327 103.1 267.677 110.95 267.677 120.25C267.677 129.85 268.327 137.9 269.627 144.4C270.927 150.8 273.477 155.95 277.277 159.85C281.077 163.75 286.577 165.7 293.777 165.7C300.977 165.7 306.477 163.75 310.277 159.85C314.077 155.95 316.627 150.8 317.927 144.4C319.227 137.9 319.877 129.85 319.877 120.25Z" fill="#F0DDBC"/>
<path fill-rule="evenodd" clip-rule="evenodd" d="M175.497 149C177 153.5 183.497 159.5 189.024 162.618C194.463 165.788 200.845 166.938 207.048 165.868C213.252 164.797 218.879 161.573 222.94 156.763C227.002 151.954 229.238 145.866 229.254 139.571C229.271 133.276 227.068 127.176 223.032 122.345C218.996 117.514 213.386 114.261 207.188 113.157C200.99 112.053 194.602 113.17 189.146 116.311C183.692 119.452 177.655 125.088 175.497 131L174.783 129.39C175.013 128.761 175.263 128.143 175.533 127.534C178.062 121.833 182.343 117.063 187.778 113.934C193.793 110.472 200.836 109.24 207.669 110.457C214.502 111.674 220.687 115.261 225.136 120.587C229.586 125.913 232.015 132.638 231.997 139.578C231.978 146.519 229.514 153.23 225.036 158.533C220.558 163.836 214.354 167.39 207.515 168.57C200.676 169.751 193.639 168.482 187.643 164.987C182.225 161.83 175.498 157.214 172.999 151.5C172.732 150.89 173 150 174.73 149.463L175.497 149Z" fill="#F0DDBC"/>
<path d="M52.62 247.12C52.62 250.72 51.44 253.62 49.08 255.82C46.72 258.02 43.18 259.12 38.46 259.12H30V277H25.8V235.06H38.46C43.14 235.06 46.66 236.16 49.02 238.36C51.42 240.56 52.62 243.48 52.62 247.12ZM38.46 255.52C45.02 255.52 48.3 252.72 48.3 247.12C48.3 244.32 47.52 242.2 45.96 240.76C44.4 239.32 41.9 238.6 38.46 238.6H30V255.52H38.46ZM63.8672 250.06C64.7872 248.02 66.1872 246.44 68.0672 245.32C69.9872 244.2 72.3272 243.64 75.0872 243.64V248.02H73.9472C70.9072 248.02 68.4672 248.84 66.6272 250.48C64.7872 252.12 63.8672 254.86 63.8672 258.7V277H59.6672V244.24H63.8672V250.06ZM95.7455 277.48C92.6655 277.48 89.8855 276.8 87.4055 275.44C84.9655 274.04 83.0255 272.08 81.5855 269.56C80.1855 267 79.4855 264.02 79.4855 260.62C79.4855 257.22 80.2055 254.26 81.6455 251.74C83.0855 249.18 85.0455 247.22 87.5255 245.86C90.0055 244.46 92.7855 243.76 95.8655 243.76C98.9455 243.76 101.725 244.46 104.205 245.86C106.725 247.22 108.685 249.18 110.085 251.74C111.525 254.26 112.245 257.22 112.245 260.62C112.245 263.98 111.525 266.94 110.085 269.5C108.645 272.06 106.665 274.04 104.145 275.44C101.625 276.8 98.8255 277.48 95.7455 277.48ZM95.7455 273.82C97.9055 273.82 99.9055 273.34 101.745 272.38C103.585 271.38 105.065 269.9 106.185 267.94C107.345 265.94 107.925 263.5 107.925 260.62C107.925 257.74 107.365 255.32 106.245 253.36C105.125 251.36 103.645 249.88 101.805 248.92C99.9655 247.92 97.9655 247.42 95.8055 247.42C93.6455 247.42 91.6455 247.92 89.8055 248.92C87.9655 249.88 86.4855 251.36 85.3655 253.36C84.2855 255.32 83.7455 257.74 83.7455 260.62C83.7455 263.5 84.2855 265.94 85.3655 267.94C86.4855 269.9 87.9455 271.38 89.7455 272.38C91.5855 273.34 93.5855 273.82 95.7455 273.82ZM122.302 238.06C121.462 238.06 120.742 237.76 120.142 237.16C119.542 236.56 119.242 235.82 119.242 234.94C119.242 234.06 119.542 233.34 120.142 232.78C120.742 232.18 121.462 231.88 122.302 231.88C123.142 231.88 123.842 232.18 124.402 232.78C125.002 233.34 125.302 234.06 125.302 234.94C125.302 235.82 125.002 236.56 124.402 237.16C123.842 237.76 123.142 238.06 122.302 238.06ZM124.342 284.74C124.342 287.38 123.682 289.32 122.362 290.56C121.042 291.84 119.062 292.48 116.422 292.48H113.482V288.88H115.762C117.322 288.88 118.442 288.54 119.122 287.86C119.802 287.22 120.142 286.12 120.142 284.56V244.24H124.342V284.74ZM163.604 258.94C163.604 260.38 163.564 261.48 163.484 262.24H136.304C136.424 264.72 137.024 266.84 138.104 268.6C139.184 270.36 140.604 271.7 142.364 272.62C144.124 273.5 146.044 273.94 148.124 273.94C150.844 273.94 153.124 273.28 154.964 271.96C156.844 270.64 158.084 268.86 158.684 266.62H163.124C162.324 269.82 160.604 272.44 157.964 274.48C155.364 276.48 152.084 277.48 148.124 277.48C145.044 277.48 142.284 276.8 139.844 275.44C137.404 274.04 135.484 272.08 134.084 269.56C132.724 267 132.044 264.02 132.044 260.62C132.044 257.22 132.724 254.24 134.084 251.68C135.444 249.12 137.344 247.16 139.784 245.8C142.224 244.44 145.004 243.76 148.124 243.76C151.244 243.76 153.964 244.44 156.284 245.8C158.644 247.16 160.444 249 161.684 251.32C162.964 253.6 163.604 256.14 163.604 258.94ZM159.344 258.82C159.384 256.38 158.884 254.3 157.844 252.58C156.844 250.86 155.464 249.56 153.704 248.68C151.944 247.8 150.024 247.36 147.944 247.36C144.824 247.36 142.164 248.36 139.964 250.36C137.764 252.36 136.544 255.18 136.304 258.82H159.344ZM169.368 260.62C169.368 257.22 170.048 254.26 171.408 251.74C172.768 249.18 174.648 247.22 177.048 245.86C179.448 244.46 182.188 243.76 185.268 243.76C189.308 243.76 192.628 244.76 195.228 246.76C197.868 248.76 199.568 251.48 200.328 254.92H195.828C195.268 252.56 194.048 250.72 192.168 249.4C190.328 248.04 188.028 247.36 185.268 247.36C183.068 247.36 181.088 247.86 179.328 248.86C177.568 249.86 176.168 251.36 175.128 253.36C174.128 255.32 173.628 257.74 173.628 260.62C173.628 263.5 174.128 265.94 175.128 267.94C176.168 269.94 177.568 271.44 179.328 272.44C181.088 273.44 183.068 273.94 185.268 273.94C188.028 273.94 190.328 273.28 192.168 271.96C194.048 270.6 195.268 268.72 195.828 266.32H200.328C199.568 269.68 197.868 272.38 195.228 274.42C192.588 276.46 189.268 277.48 185.268 277.48C182.188 277.48 179.448 276.8 177.048 275.44C174.648 274.04 172.768 272.08 171.408 269.56C170.048 267 169.368 264.02 169.368 260.62ZM213.545 247.78V268.12C213.545 270.12 213.925 271.5 214.685 272.26C215.445 273.02 216.785 273.4 218.705 273.4H222.545V277H218.045C215.085 277 212.885 276.32 211.445 274.96C210.005 273.56 209.285 271.28 209.285 268.12V247.78H204.725V244.24H209.285V236.02H213.545V244.24H222.545V247.78H213.545ZM240.752 277.48C236.992 277.48 233.912 276.62 231.512 274.9C229.152 273.14 227.832 270.76 227.552 267.76H231.872C232.072 269.6 232.932 271.1 234.452 272.26C236.012 273.38 238.092 273.94 240.692 273.94C242.972 273.94 244.752 273.4 246.032 272.32C247.352 271.24 248.012 269.9 248.012 268.3C248.012 267.18 247.652 266.26 246.932 265.54C246.212 264.82 245.292 264.26 244.172 263.86C243.092 263.42 241.612 262.96 239.732 262.48C237.292 261.84 235.312 261.2 233.792 260.56C232.272 259.92 230.972 258.98 229.892 257.74C228.852 256.46 228.332 254.76 228.332 252.64C228.332 251.04 228.812 249.56 229.772 248.2C230.732 246.84 232.092 245.76 233.852 244.96C235.612 244.16 237.612 243.76 239.852 243.76C243.372 243.76 246.212 244.66 248.372 246.46C250.532 248.22 251.692 250.66 251.852 253.78H247.652C247.532 251.86 246.772 250.32 245.372 249.16C244.012 247.96 242.132 247.36 239.732 247.36C237.612 247.36 235.892 247.86 234.572 248.86C233.252 249.86 232.592 251.1 232.592 252.58C232.592 253.86 232.972 254.92 233.732 255.76C234.532 256.56 235.512 257.2 236.672 257.68C237.832 258.12 239.392 258.62 241.352 259.18C243.712 259.82 245.592 260.44 246.992 261.04C248.392 261.64 249.592 262.52 250.592 263.68C251.592 264.84 252.112 266.38 252.152 268.3C252.152 270.06 251.672 271.64 250.712 273.04C249.752 274.4 248.412 275.48 246.692 276.28C244.972 277.08 242.992 277.48 240.752 277.48ZM309.523 247.3C308.323 244.54 306.483 242.38 304.003 240.82C301.563 239.22 298.683 238.42 295.363 238.42C292.243 238.42 289.443 239.14 286.963 240.58C284.483 242.02 282.523 244.08 281.083 246.76C279.643 249.4 278.923 252.48 278.923 256C278.923 259.52 279.643 262.62 281.083 265.3C282.523 267.98 284.483 270.04 286.963 271.48C289.443 272.92 292.243 273.64 295.363 273.64C298.283 273.64 300.903 273.02 303.223 271.78C305.583 270.5 307.463 268.7 308.863 266.38C310.303 264.02 311.123 261.28 311.323 258.16H293.683V254.74H315.763V257.8C315.563 261.48 314.563 264.82 312.763 267.82C310.963 270.78 308.543 273.12 305.503 274.84C302.503 276.56 299.123 277.42 295.363 277.42C291.483 277.42 287.963 276.52 284.803 274.72C281.643 272.88 279.143 270.34 277.303 267.1C275.503 263.82 274.603 260.12 274.603 256C274.603 251.88 275.503 248.2 277.303 244.96C279.143 241.68 281.643 239.14 284.803 237.34C287.963 235.5 291.483 234.58 295.363 234.58C299.843 234.58 303.763 235.7 307.123 237.94C310.483 240.18 312.923 243.3 314.443 247.3H309.523ZM321.536 260.56C321.536 257.2 322.196 254.26 323.516 251.74C324.876 249.18 326.736 247.22 329.096 245.86C331.496 244.46 334.196 243.76 337.196 243.76C340.316 243.76 342.996 244.48 345.236 245.92C347.516 247.36 349.156 249.2 350.156 251.44V244.24H354.356V277H350.156V269.74C349.116 271.98 347.456 273.84 345.176 275.32C342.936 276.76 340.256 277.48 337.136 277.48C334.176 277.48 331.496 276.78 329.096 275.38C326.736 273.98 324.876 272 323.516 269.44C322.196 266.88 321.536 263.92 321.536 260.56ZM350.156 260.62C350.156 257.98 349.616 255.66 348.536 253.66C347.456 251.66 345.976 250.12 344.096 249.04C342.256 247.96 340.216 247.42 337.976 247.42C335.656 247.42 333.576 247.94 331.736 248.98C329.896 250.02 328.436 251.54 327.356 253.54C326.316 255.5 325.796 257.84 325.796 260.56C325.796 263.24 326.316 265.6 327.356 267.64C328.436 269.64 329.896 271.18 331.736 272.26C333.576 273.3 335.656 273.82 337.976 273.82C340.216 273.82 342.256 273.28 344.096 272.2C345.976 271.12 347.456 269.58 348.536 267.58C349.616 265.58 350.156 263.26 350.156 260.62ZM368.145 232.6V277H363.945V232.6H368.145ZM381.855 232.6V277H377.655V232.6H381.855ZM421.006 258.94C421.006 260.38 420.966 261.48 420.886 262.24H393.706C393.826 264.72 394.426 266.84 395.506 268.6C396.586 270.36 398.006 271.7 399.766 272.62C401.526 273.5 403.446 273.94 405.526 273.94C408.246 273.94 410.526 273.28 412.366 271.96C414.246 270.64 415.486 268.86 416.086 266.62H420.526C419.726 269.82 418.006 272.44 415.366 274.48C412.766 276.48 409.486 277.48 405.526 277.48C402.446 277.48 399.686 276.8 397.246 275.44C394.806 274.04 392.886 272.08 391.486 269.56C390.126 267 389.446 264.02 389.446 260.62C389.446 257.22 390.126 254.24 391.486 251.68C392.846 249.12 394.746 247.16 397.186 245.8C399.626 244.44 402.406 243.76 405.526 243.76C408.646 243.76 411.366 244.44 413.686 245.8C416.046 247.16 417.846 249 419.086 251.32C420.366 253.6 421.006 256.14 421.006 258.94ZM416.746 258.82C416.786 256.38 416.286 254.3 415.246 252.58C414.246 250.86 412.866 249.56 411.106 248.68C409.346 247.8 407.426 247.36 405.346 247.36C402.226 247.36 399.566 248.36 397.366 250.36C395.166 252.36 393.946 255.18 393.706 258.82H416.746ZM432.891 250.06C433.811 248.02 435.211 246.44 437.091 245.32C439.011 244.2 441.351 243.64 444.111 243.64V248.02H442.971C439.931 248.02 437.491 248.84 435.651 250.48C433.811 252.12 432.891 254.86 432.891 258.7V277H428.691V244.24H432.891V250.06ZM477.429 244.24L457.989 292.42H453.609L459.969 276.82L446.529 244.24H451.149L462.309 272.2L473.109 244.24H477.429Z" fill="#F0DDBC"/>
<path d="M293.5 74.5V166.5" stroke="#F0DDBC"/>
<path d="M202 112V167" stroke="#F0DDBC"/>
<rect x="288" y="97" width="11" height="11" rx="5.5" fill="#F0DDBC"/>
<rect x="288" y="134" width="11" height="11" rx="5.5" fill="#F0DDBC"/>
<rect x="196" y="134" width="11" height="11" rx="5.5" fill="#F0DDBC"/>
</svg>
